<?xml version="1.0" encoding="UTF-8" standalone="no"?>
<svg width="168px" height="42px" viewBox="0 0 168 42" version="1.1" xmlns="http://www.w3.org/2000/svg" xmlns:xlink="http://www.w3.org/1999/xlink">
    <!-- Generator: sketchtool 50.2 (55047) - http://www.bohemiancoding.com/sketch -->
    <title>A51224E4-FA6F-42A8-B7B0-2E0171C23D04</title>
    <desc>Created with sketchtool.</desc>
    <defs>
        <linearGradient x1="-179.488773%" y1="50.0083098%" x2="235.30996%" y2="50.0083098%" id="linearGradient-1">
            <stop stop-color="#4935DF" offset="0%"></stop>
            <stop stop-color="#B54D7A" offset="51%"></stop>
            <stop stop-color="#B64D79" offset="51%"></stop>
            <stop stop-color="#CC5264" offset="55%"></stop>
            <stop stop-color="#DD5654" offset="60%"></stop>
            <stop stop-color="#E85849" offset="67%"></stop>
            <stop stop-color="#EF5A43" offset="75%"></stop>
            <stop stop-color="#F15A41" offset="100%"></stop>
        </linearGradient>
        <linearGradient x1="-339.574409%" y1="49.9750906%" x2="74.8515025%" y2="49.9750906%" id="linearGradient-2">
            <stop stop-color="#4935DF" offset="0%"></stop>
            <stop stop-color="#B54D7A" offset="51%"></stop>
            <stop stop-color="#B64D79" offset="51%"></stop>
            <stop stop-color="#CC5264" offset="55%"></stop>
            <stop stop-color="#DD5654" offset="60%"></stop>
            <stop stop-color="#E85849" offset="67%"></stop>
            <stop stop-color="#EF5A43" offset="75%"></stop>
            <stop stop-color="#F15A41" offset="100%"></stop>
        </linearGradient>
        <linearGradient x1="25.9971573%" y1="50.0171042%" x2="479.863093%" y2="50.0171042%" id="linearGradient-3">
            <stop stop-color="#4935DF" offset="0%"></stop>
            <stop stop-color="#B54D7A" offset="51%"></stop>
            <stop stop-color="#B64D79" offset="51%"></stop>
            <stop stop-color="#CC5264" offset="55%"></stop>
            <stop stop-color="#DD5654" offset="60%"></stop>
            <stop stop-color="#E85849" offset="67%"></stop>
            <stop stop-color="#EF5A43" offset="75%"></stop>
            <stop stop-color="#F15A41" offset="100%"></stop>
        </linearGradient>
        <linearGradient x1="-70.0630091%" y1="50%" x2="288.289534%" y2="50%" id="linearGradient-4">
            <stop stop-color="#4935DF" offset="0%"></stop>
            <stop stop-color="#B54D7A" offset="51%"></stop>
            <stop stop-color="#B64D79" offset="51%"></stop>
            <stop stop-color="#CC5264" offset="55%"></stop>
            <stop stop-color="#DD5654" offset="60%"></stop>
            <stop stop-color="#E85849" offset="67%"></stop>
            <stop stop-color="#EF5A43" offset="75%"></stop>
            <stop stop-color="#F15A41" offset="100%"></stop>
        </linearGradient>
        <linearGradient x1="-2058.68773%" y1="49.991818%" x2="774.605103%" y2="49.991818%" id="linearGradient-5">
            <stop stop-color="#4935DF" offset="0%"></stop>
            <stop stop-color="#B54D7A" offset="51%"></stop>
            <stop stop-color="#B64D79" offset="51%"></stop>
            <stop stop-color="#CC5264" offset="55%"></stop>
            <stop stop-color="#DD5654" offset="60%"></stop>
            <stop stop-color="#E85849" offset="67%"></stop>
            <stop stop-color="#EF5A43" offset="75%"></stop>
            <stop stop-color="#F15A41" offset="100%"></stop>
        </linearGradient>
    </defs>
    <g id="Page-1" stroke="none" stroke-width="1" fill="none" fill-rule="evenodd">
        <g id="Home-page" transform="translate(-110.000000, -63.000000)" fill-rule="nonzero">
            <g id="Header">
                <g id="LOGO-CADIC-VF-2-10" transform="translate(110.000000, 63.000000)">
                    <g id="Shape">
                        <path d="M90.6494656,41.5036364 L90.6494656,41.4272727 C90.6687778,38.7351693 92.4352393,36.3626002 95.0225954,35.5536364 C100.875789,33.6311769 104.778434,28.1417324 104.640916,22.0245455 C104.363976,14.4346609 98.0649634,8.4340961 90.4122137,8.47 L79.1972519,8.47 C77.7914251,8.47168908 76.4425947,7.91864096 75.4479231,6.93269843 C74.4532515,5.9467559 73.8943501,4.60881395 73.8943511,3.21363636 L90.328855,3.21363636 C100.889771,3.21363636 109.738626,11.4863636 109.937405,21.9863636 C110.033748,27.1263048 108.044863,32.0890777 104.417743,35.7593247 C100.790622,39.4295716 95.8295373,41.4994035 90.6494656,41.5036364" fill="url(#linearGradient-1)"></path>
                        <path d="M151.033282,3.21363636 L151.033282,3.29 C151.008693,5.98179333 149.24481,8.3534656 146.660153,9.17 C140.806652,11.0882696 136.902966,16.576596 137.041832,22.6927273 C137.305819,30.3150039 143.64354,36.3393469 151.328244,36.2727273 L162.485496,36.2727273 C163.891323,36.2710382 165.240153,36.8240863 166.234825,37.8100288 C167.229497,38.7959714 167.788398,40.1339133 167.788397,41.5290909 L151.328244,41.5290909 C140.760916,41.5290909 131.918473,33.2563636 131.713282,22.7563636 C131.611626,17.6070455 133.602361,12.633782 137.236829,8.95741433 C140.871298,5.28104664 145.843661,3.21093823 151.033282,3.21363636" fill="url(#linearGradient-2)"></path>
                        <path d="M19.9355725,41.6754545 C11.200985,41.6793957 3.55319817,35.8594216 1.29086701,27.4868133 C-0.971464159,19.114205 2.71602328,10.2776 10.2806727,5.94386229 C17.8453221,1.61012455 27.4000499,2.86035169 33.5743511,8.99181818 C31.6283686,10.9046154 28.664888,11.3614246 26.2259542,10.1245455 C20.226699,7.13574685 12.9344686,8.7875516 8.83603053,14.0636364 C4.85641648,19.2212162 5.00762917,26.4266445 9.20017179,31.4153126 C13.3927144,36.4039807 20.5080789,37.8449861 26.3349618,34.8854545 C28.7509309,33.6772103 31.6766133,34.1555579 33.5743511,36.0690909 C29.9651513,39.6707995 25.0538956,41.6896229 19.9355725,41.6754545" fill="url(#linearGradient-3)"></path>
                        <path d="M80.1526718,41.6181818 L64.68,41.6181818 C61.7512888,41.6181818 59.3770992,39.2619786 59.3770992,36.3554545 L71.5218321,36.3554545 L58.9410687,11.7981818 L46.860458,36.3236364 C45.289538,39.5128279 42.0049933,41.5157229 38.4283969,41.4654545 L58.8384733,0 L80.1526718,41.6181818 Z" fill="url(#linearGradient-4)"></path>
                        <path d="M117.837252,41.9236364 L117.837252,8.27272727 C117.847802,5.38460961 120.204339,3.04592517 123.114504,3.03545455 L123.114504,36.6609091 C123.114538,39.5575214 120.755942,41.9096261 117.837252,41.9236364 Z" fill="url(#linearGradient-5)"></path>
                    </g>
                </g>
            </g>
        </g>
    </g>
</svg>